<?xml version="1.0" encoding="UTF-8"?>
<svg id="Capa_1" xmlns="http://www.w3.org/2000/svg" version="1.1" viewBox="0 0 128 128">
  <!-- Generator: Adobe Illustrator 29.2.1, SVG Export Plug-In . SVG Version: 2.1.0 Build 116)  -->
  <defs>
    <style>
      .st0 {
        fill: #fff;
      }

      .st1 {
        fill: none;
      }
    </style>
  </defs>
  <rect width="128" height="128"/>
  <g>
    <g>
      <path class="st0" d="M106.67,38.6c-.04-.18-.08-.36-.13-.55-.75-2.67-2.6-4.23-3.27-4.79-4.06-3.39-9.29-2.48-10.33-2.27-.68.14-1.32.33-1.93.55l-.26-.69c1.52-.56,2.95-.99,4.24-1.32.36-.04.73-.06,1.1-.06,5.37,0,9.82,3.95,10.59,9.11Z"/>
      <path class="st0" d="M104.09,48.73c-.03.06-.05.11-.08.16-1.98,4.19-3.38,7.03-6.55,8.82-2.31,1.3-4.62,1.51-6.05,1.51,1.88,1.53,4.97,4.45,7.31,9.07,2.38,4.68,2.9,8.98,3.01,11.5-2.07-5.07-8.1-8.73-15.23-8.73-.87,0-1.72.06-2.55.16-.8.1-1.58.25-2.34.44l-.03-.1c-2.25-1.82-6.53-5.79-9.32-12.34-2.53-5.95-2.66-11.26-2.52-14.11-.39-.37-1.81-1.63-4.03-1.76-2.69-.16-4.48,1.47-4.79,1.76-.5,4.24-1.92,11.24-6.55,18.39-2.21,3.42-4.62,6.05-6.74,8-.66-.14-1.33-.25-2.02-.32h0c-.72-.08-1.45-.12-2.2-.12-7.11,0-13.13,3.65-15.21,8.7h-.03c.08-2.55.54-7.16,3.02-12.21,2.34-4.75,5.43-7.76,7.31-9.34-1.43,0-3.74-.21-6.05-1.51-3.17-1.79-4.56-4.63-6.55-8.82-.41-.87-.86-1.89-1.31-3.06-.09-.24-.19-.49-.28-.75,0,0,0,0,0-.01-.35-.96-.71-2.02-1.03-3.16-.09-.56-.14-1.13-.14-1.72,0-5.91,4.79-10.71,10.71-10.71.51,0,1,.03,1.49.1l.46-.02c1.55.4,3.46,1.07,5.49,2.19,3.63,2.01,5.98,4.57,7.31,6.3,1-.21,2.09-.39,3.27-.5,2.28-.23,4.33-.17,6.05,0-.02-.83-.15-2.11-.76-3.53-.95-2.22-2.51-3.49-3.27-4.03,1.62.94,3.59,2.31,5.54,4.28,1.13,1.13,2.04,2.25,2.77,3.27-.08-.76-.1-2.21.76-3.53,1.37-2.09,4.02-2.4,5.04-2.52.82-.1,1.52-.06,2.02,0-.19.05-3.54.94-4.28,3.78-.23.89-.14,1.69,0,2.27,1.7-.25,3.84-.42,6.3-.25,2.74.18,5.05.72,6.8,1.26,2.12-1.68,4.96-3.61,8.56-5.29,1.16-.54,2.28-1,3.35-1.4l.26.69c-5.86,2.19-8.2,8.02-8.4,8.51,2.69,5.62,5.38,11.25,8.06,16.88,1.72-.01,4.89-.29,8.06-2.27,2.73-1.7,4.32-3.95,5.37-5.95ZM84,66.75c.21-.69.89-3.12-.25-5.79-1.53-3.59-5.06-4.65-5.54-4.79-.67,2.27-1.35,4.53-2.02,6.8.72.72,1.88,1.71,3.53,2.52,1.7.84,3.25,1.14,4.28,1.26ZM53.76,61.97c-.67-2.27-1.34-4.53-2.02-6.8-.48.14-4.01,1.19-5.54,4.79-1.14,2.68-.47,5.11-.25,5.79,1.03-.12,2.58-.42,4.28-1.26,1.64-.81,2.81-1.8,3.53-2.52ZM39.65,56.37c2.69-5.62,5.37-11.25,8.06-16.88-.21-.55-3.05-7.58-10.33-9.07-1.04-.21-6.27-1.12-10.33,2.27-.67.56-2.52,2.12-3.27,4.79-.85,2.99.2,5.52,1.26,8.06.97,2.34,2.51,6.05,6.55,8.56,3.17,1.97,6.34,2.26,8.06,2.27Z"/>
      <path class="st0" d="M101.74,79.79c.5,1.22.77,2.51.77,3.86,0,6.95-7.16,12.59-16,12.59-1.54,0-3.03-.17-4.44-.49,6-2.11,9.82-7.94,9.36-13.8-.36-4.54-3.26-8.61-7.46-10.73.83-.11,1.68-.16,2.55-.16,7.12,0,13.16,3.67,15.23,8.73Z"/>
      <path class="st0" d="M70.43,91.93v2.77c-.07.08-.67.76-1.76.81-1.25.06-1.98-.76-2.02-.81v-4.08l3.78,1.31Z"/>
      <path class="st0" d="M69.76,78.61v3.53c-.07.14-.72,1.45-2.27,1.76-1.54.31-2.65-.65-2.77-.76-.04.05-1.06,1.24-2.52,1.01-1.18-.19-2.13-1.22-2.27-2.52v-3.02c.36.35,2.08,1.96,4.79,2.02,2.87.05,4.71-1.69,5.04-2.02Z"/>
      <path class="st0" d="M63.12,90.48v4.22s-.76.86-2.02.81c-1.1-.05-1.7-.73-1.76-.81v-2.96c1.26-.42,2.52-.84,3.78-1.26Z"/>
      <path class="st0" d="M43.44,71.05c.75,0,1.48.04,2.2.12-4.24,2.11-7.18,6.21-7.54,10.78-.47,5.91,3.43,11.8,9.53,13.86-1.33.29-2.74.44-4.18.44-8.83,0-16-5.64-16-12.59,0-1.36.27-2.67.78-3.89,2.08-5.05,8.11-8.7,15.21-8.7Z"/>
    </g>
    <path class="st1" d="M46.96,95.52c3.48,1.63,10.55,4.36,19.76,3.95,7.19-.32,12.75-2.42,16.01-3.95"/>
    <path class="st0" d="M76.97,82.04c9.33-7.93,20.79-13.02,32.92-14.67.95-.13.55-1.58-.4-1.45-12.39,1.69-24.06,6.96-33.58,15.05-.74.63.33,1.68,1.06,1.06h0Z"/>
    <path class="st0" d="M76.82,84.55c11.81-3.23,24.33-3,36.02.65.92.29,1.32-1.16.4-1.45-11.93-3.73-24.76-3.94-36.81-.65-.93.25-.54,1.7.4,1.45h0Z"/>
    <path class="st0" d="M77.2,87.11c12.24-.36,24.36,2.78,34.87,9.08.83.5,1.59-.8.76-1.3-10.72-6.43-23.13-9.65-35.62-9.28-.96.03-.97,1.53,0,1.5h0Z"/>
    <path class="st0" d="M52.1,80.98c-9.52-8.1-21.19-13.37-33.58-15.05-.94-.13-1.35,1.32-.4,1.45,12.13,1.65,23.59,6.73,32.92,14.67.73.62,1.8-.43,1.06-1.06h0Z"/>
    <path class="st0" d="M51.59,83.51c-11.98-3.57-24.81-3.63-36.82-.17-.93.27-.53,1.71.4,1.45,11.77-3.39,24.29-3.32,36.02.17.93.28,1.32-1.17.4-1.45h0Z"/>
    <path class="st0" d="M50.8,85.61c-12.49-.37-24.9,2.86-35.62,9.28-.83.5-.07,1.79.76,1.3,10.51-6.3,22.63-9.44,34.87-9.08.97.03.96-1.47,0-1.5h0Z"/>
  </g>
  <g>
    <path class="st0" d="M1430.97,176.01c-.66,1.06-1.35,1.85-2.08,2.38-.73.53-1.66.79-2.8.79-1.01,0-2.1-.32-3.27-.96-1.17-.64-2.49-1.35-3.96-2.14-1.47-.79-3.16-1.51-5.05-2.14s-4.05-.96-6.47-.96c-4.18,0-7.29.89-9.34,2.67s-3.07,4.19-3.07,7.23c0,1.94.62,3.54,1.85,4.82,1.23,1.28,2.85,2.38,4.85,3.3,2,.92,4.29,1.77,6.86,2.54,2.57.77,5.2,1.63,7.89,2.57,2.68.95,5.31,2.06,7.89,3.33,2.57,1.28,4.86,2.9,6.86,4.88,2,1.98,3.62,4.39,4.85,7.23,1.23,2.84,1.85,6.26,1.85,10.26,0,4.44-.77,8.6-2.31,12.47-1.54,3.87-3.77,7.25-6.7,10.13-2.93,2.88-6.53,5.15-10.82,6.8-4.29,1.65-9.16,2.48-14.62,2.48-2.99,0-6.04-.31-9.14-.92-3.1-.62-6.11-1.48-9.01-2.61-2.9-1.12-5.63-2.45-8.18-3.99-2.55-1.54-4.77-3.26-6.67-5.15l6.6-10.43c.48-.79,1.17-1.43,2.05-1.91.88-.48,1.83-.73,2.84-.73,1.32,0,2.65.42,3.99,1.25,1.34.84,2.86,1.76,4.55,2.77,1.69,1.01,3.64,1.94,5.84,2.77,2.2.84,4.8,1.25,7.79,1.25,4.05,0,7.19-.89,9.44-2.67,2.24-1.78,3.37-4.61,3.37-8.48,0-2.24-.62-4.07-1.85-5.48-1.23-1.41-2.85-2.57-4.85-3.5-2-.92-4.28-1.74-6.83-2.44-2.55-.7-5.17-1.48-7.85-2.34-2.68-.86-5.3-1.91-7.85-3.17-2.55-1.25-4.83-2.9-6.83-4.95-2-2.04-3.62-4.6-4.85-7.66-1.23-3.06-1.85-6.83-1.85-11.32,0-3.61.73-7.13,2.18-10.56,1.45-3.43,3.59-6.49,6.4-9.17,2.82-2.68,6.27-4.83,10.36-6.43,4.09-1.61,8.78-2.41,14.06-2.41,2.95,0,5.82.23,8.61.69,2.79.46,5.44,1.14,7.95,2.05,2.51.9,4.85,1.98,7.03,3.23s4.12,2.67,5.84,4.26l-5.54,10.36Z"/>
    <path class="st0" d="M1543.83,204.53c0,4.14-.43,8.11-1.29,11.91-.86,3.81-2.09,7.38-3.7,10.72-1.61,3.34-3.59,6.45-5.94,9.31-2.35,2.86-5.03,5.39-8.02,7.59l24.35,26.6h-18.35c-2.64,0-5.04-.32-7.19-.96-2.16-.64-4.07-1.93-5.74-3.86l-11.95-13.4c-1.94.4-3.91.7-5.91.92-2,.22-4.06.33-6.17.33-7.48,0-14.3-1.25-20.46-3.76s-11.43-5.97-15.81-10.39c-4.38-4.42-7.77-9.62-10.16-15.61-2.4-5.98-3.6-12.45-3.6-19.4s1.2-13.42,3.6-19.4c2.4-5.98,5.79-11.18,10.16-15.58,4.38-4.4,9.65-7.85,15.81-10.36s12.98-3.76,20.46-3.76,14.29,1.27,20.43,3.79c6.14,2.53,11.38,6,15.74,10.4,4.36,4.4,7.73,9.59,10.13,15.58,2.4,5.98,3.6,12.43,3.6,19.34ZM1521,204.53c0-4.75-.62-9.03-1.85-12.84-1.23-3.81-3-7.03-5.31-9.67-2.31-2.64-5.14-4.66-8.48-6.07-3.34-1.41-7.15-2.11-11.42-2.11s-8.15.71-11.52,2.11c-3.37,1.41-6.2,3.43-8.51,6.07-2.31,2.64-4.08,5.86-5.31,9.67-1.23,3.81-1.85,8.08-1.85,12.84s.62,9.1,1.85,12.9c1.23,3.81,3,7.03,5.31,9.67,2.31,2.64,5.15,4.65,8.51,6.04,3.37,1.39,7.2,2.08,11.52,2.08s8.07-.69,11.42-2.08c3.34-1.39,6.17-3.4,8.48-6.04,2.31-2.64,4.08-5.86,5.31-9.67s1.85-8.11,1.85-12.9Z"/>
    <path class="st0" d="M1594.52,235.02c2.99,0,5.67-.49,8.02-1.48s4.34-2.41,5.97-4.26c1.63-1.85,2.87-4.1,3.73-6.76.86-2.66,1.29-5.69,1.29-9.08v-56.96h22.31v56.96c0,5.9-.96,11.31-2.87,16.24-1.91,4.93-4.65,9.17-8.22,12.74-3.56,3.56-7.9,6.34-13,8.32-5.1,1.98-10.85,2.97-17.23,2.97s-12.19-.99-17.29-2.97c-5.1-1.98-9.44-4.75-13-8.32-3.56-3.56-6.29-7.81-8.18-12.74-1.89-4.93-2.84-10.34-2.84-16.24v-56.96h22.31v56.89c0,3.39.43,6.41,1.29,9.08.86,2.66,2.1,4.93,3.73,6.8s3.62,3.3,5.97,4.29c2.35.99,5.03,1.48,8.02,1.48Z"/>
    <path class="st0" d="M1712.26,156.48v17.16h-39.47v22.44h30.23v16.5h-30.23v22.9h39.47v17.16h-61.91v-96.16h61.91Z"/>
    <path class="st0" d="M1814.43,252.64h-17.29c-1.94,0-3.53-.45-4.79-1.35-1.25-.9-2.12-2.06-2.61-3.46l-5.68-16.76h-36.56l-5.68,16.76c-.44,1.23-1.3,2.34-2.57,3.33-1.28.99-2.84,1.49-4.69,1.49h-17.42l37.22-96.16h22.84l37.22,96.16ZM1752.65,215.88h26.27l-8.84-26.33c-.57-1.67-1.24-3.64-2.01-5.91-.77-2.27-1.53-4.72-2.28-7.36-.71,2.68-1.43,5.17-2.18,7.46-.75,2.29-1.45,4.27-2.11,5.94l-8.84,26.2Z"/>
    <path class="st0" d="M1844.52,195.42h3.56c3.3,0,5.68-1.03,7.13-3.1l21.65-31.42c1.19-1.72,2.54-2.88,4.06-3.5,1.52-.62,3.38-.92,5.58-.92h19.4l-28.51,38.87c-1.01,1.41-2.07,2.57-3.17,3.5s-2.22,1.7-3.37,2.31c1.67.62,3.2,1.46,4.59,2.54,1.39,1.08,2.65,2.52,3.79,4.32l29.04,44.62h-19.93c-1.28,0-2.37-.09-3.27-.26-.9-.17-1.68-.44-2.34-.79-.66-.35-1.23-.78-1.72-1.29-.48-.5-.95-1.09-1.39-1.75l-21.78-33.46c-.79-1.23-1.79-2.1-3-2.61-1.21-.5-2.85-.76-4.92-.76h-5.41v40.92h-22.31v-96.16h22.31v38.94Z"/>
  </g>
  <g>
    <g>
      <path class="st0" d="M1808.38-136.92c-.15-.72-.32-1.44-.53-2.17-2.99-10.59-10.33-16.78-13-19-16.11-13.44-36.87-9.84-41-9-2.71.55-5.26,1.3-7.67,2.2l-1.02-2.74c6.04-2.24,11.7-3.93,16.83-5.24,1.43-.15,2.89-.22,4.36-.22,21.33,0,38.98,15.69,42.03,36.17Z"/>
      <path class="st0" d="M1798.15-96.73c-.1.22-.2.43-.3.64-7.88,16.63-13.41,27.91-26,35-9.17,5.16-18.34,5.99-24,6,7.47,6.08,19.72,17.68,29,36,9.43,18.59,11.52,35.66,11.95,45.67-8.21-20.12-32.17-34.67-60.45-34.67-3.45,0-6.83.22-10.13.64-3.18.39-6.27.98-9.27,1.74l-.1-.38c-8.93-7.24-25.92-23-37-49-10.06-23.64-10.54-44.71-10-56-1.53-1.46-7.19-6.49-16-7-10.67-.63-17.78,5.85-19,7-1.97,16.83-7.63,44.63-26,73-8.78,13.56-18.36,24-26.75,31.76-2.61-.56-5.28-1-8.01-1.29h0c-2.86-.31-5.77-.47-8.73-.47-28.22,0-52.14,14.49-60.4,34.54l-.1-.04c.31-10.08,2.15-28.39,12-48.42,9.29-18.87,21.54-30.82,29-37.08-5.66,0-14.83-.84-24-6-12.59-7.09-18.12-18.37-26-35-1.62-3.44-3.41-7.5-5.21-12.14-.37-.96-.74-1.95-1.12-2.96,0-.01,0-.03-.02-.05-1.4-3.82-2.8-8-4.1-12.53-.36-2.22-.55-4.5-.55-6.82,0-23.48,19.03-42.5,42.5-42.5,2.01,0,3.98.13,5.91.4l1.81-.09c6.17,1.59,13.75,4.23,21.78,8.69,14.43,7.99,23.73,18.16,29,25,3.96-.83,8.31-1.54,13-2,9.06-.9,17.17-.68,24,0-.06-3.31-.6-8.39-3-14-3.76-8.81-9.97-13.86-13-16,6.43,3.75,14.25,9.19,22,17,4.47,4.49,8.09,8.94,11,13-.32-3.03-.41-8.78,3-14,5.43-8.31,15.95-9.53,20-10,3.27-.38,6.04-.23,8,0-.77.19-14.05,3.74-17,15-.92,3.52-.54,6.72,0,9,6.74-1,15.24-1.65,25-1,10.87.72,20.03,2.84,27,5,8.41-6.66,19.71-14.33,34-21,4.59-2.14,9.04-3.98,13.31-5.54l1.02,2.74c-23.25,8.69-32.57,31.82-33.33,33.8,10.67,22.33,21.34,44.66,32,67,6.83-.04,19.43-1.16,32-9,10.85-6.76,17.16-15.7,21.3-23.64ZM1718.38-25.16c.85-2.72,3.52-12.37-1-23-6.08-14.26-20.1-18.46-22-19-2.67,9-5.34,18-8,27,2.86,2.86,7.46,6.8,14,10,6.76,3.32,12.91,4.52,17,5ZM1598.33-44.16c-2.66-9-5.33-18-8-27-1.9.54-15.92,4.74-22,19-4.52,10.63-1.85,20.28-1,23,4.09-.48,10.24-1.68,17-5,6.53-3.2,11.14-7.14,14-10ZM1542.33-66.39c10.66-22.33,21.33-44.66,32-67-.84-2.17-12.1-30.11-41-36-4.13-.84-24.89-4.43-41,9-2.67,2.23-10.01,8.42-13,19-3.36,11.87.8,21.91,5,32,3.84,9.27,9.97,24.01,26,34,12.57,7.84,25.17,8.96,32,9Z"/>
      <path class="st0" d="M1788.8,26.58c1.98,4.83,3.05,9.98,3.05,15.33,0,27.61-28.43,50-63.5,50-6.12,0-12.04-.68-17.64-1.96,23.82-8.37,39-31.53,37.14-54.79-1.44-18.01-12.94-34.19-29.63-42.61,3.3-.42,6.68-.64,10.13-.64,28.28,0,52.24,14.55,60.45,34.67Z"/>
      <path class="st0" d="M1664.5,74.79v10.99c-.27.32-2.64,3.02-7,3.21-4.97.22-7.85-3.03-8-3.21v-16.21c5,1.74,10,3.48,15,5.22Z"/>
      <path class="st0" d="M1661.85,21.91v14c-.27.57-2.87,5.77-9,7-6.12,1.22-10.52-2.58-11-3-.17.21-4.19,4.92-10,4-4.68-.75-8.46-4.84-9-10v-12c1.44,1.4,8.25,7.8,19,8,11.39.2,18.69-6.71,20-8Z"/>
      <path class="st0" d="M1635.5,69.03v16.75c-.15.18-3.03,3.43-8,3.21-4.36-.19-6.73-2.89-7-3.21v-11.75c5-1.67,10-3.34,15-5Z"/>
      <path class="st0" d="M1557.35-8.09c2.96,0,5.87.16,8.73.47-16.85,8.39-28.49,24.66-29.94,42.78-1.87,23.48,13.6,46.86,37.82,55.01-5.29,1.14-10.86,1.74-16.61,1.74-35.07,0-63.5-22.39-63.5-50,0-5.4,1.09-10.59,3.1-15.46,8.26-20.05,32.18-34.54,60.4-34.54Z"/>
    </g>
    <path class="st1" d="M1571.36,89.05c13.8,6.45,41.87,17.32,78.44,15.69,28.55-1.27,50.62-9.62,63.56-15.69"/>
    <path class="st0" d="M1689.42,34.47c12.68-10.83,26.42-20.4,40.97-28.56,18.83-10.55,39-18.66,59.89-24.09,9.9-2.57,19.95-4.56,30.08-5.92.81-.11,1.49-.61,1.5-1.5,0-.73-.7-1.61-1.5-1.5-19.89,2.67-39.44,7.58-58.18,14.79s-37.25,16.94-54.04,28.58c-7.21,5-14.17,10.37-20.84,16.07-1.47,1.26.66,3.37,2.12,2.12h0Z"/>
    <path class="st0" d="M1689.48,44.07c16.53-4.55,33.5-7.46,50.61-8.61,21.55-1.45,43.28-.14,64.5,3.93,9.68,1.86,19.25,4.29,28.66,7.25,1.85.58,2.64-2.31.8-2.89-18.46-5.81-37.56-9.53-56.86-11.06-20.84-1.66-41.85-.7-62.46,2.74-8.77,1.46-17.47,3.39-26.04,5.75-1.86.51-1.07,3.41.8,2.89h0Z"/>
    <path class="st0" d="M1691.4,54.19c17.33-.54,34.71.63,51.8,3.6,21.23,3.69,41.99,10.09,61.59,19.04,8.84,4.04,17.44,8.58,25.77,13.59,1.66,1,3.17-1.59,1.51-2.59-16.27-9.79-33.62-17.79-51.64-23.77-20.02-6.65-40.86-10.76-61.89-12.31-9.03-.67-18.09-.85-27.14-.56-1.93.06-1.93,3.06,0,3h0Z"/>
    <path class="st0" d="M1590.7,32.34c-12.88-10.99-26.8-20.75-41.57-29.03-19.11-10.71-39.61-18.95-60.81-24.44-10.09-2.61-20.34-4.58-30.67-5.97-.81-.11-1.49.77-1.5,1.5,0,.9.7,1.39,1.5,1.5,19.61,2.63,38.92,7.58,57.38,14.68,18.77,7.22,36.65,16.73,53.17,28.18,7.06,4.89,13.85,10.13,20.38,15.7,1.46,1.25,3.59-.87,2.12-2.12h0Z"/>
    <path class="st0" d="M1589.32,41.17c-16.72-4.6-33.89-7.53-51.19-8.7-21.76-1.48-43.68-.13-65.1,3.95-9.82,1.87-19.53,4.32-29.07,7.32-1.84.58-1.05,3.47.8,2.89,18.28-5.75,37.19-9.47,56.3-10.97,20.6-1.62,41.41-.72,61.79,2.72,8.65,1.46,17.22,3.36,25.67,5.69,1.86.51,2.66-2.38.8-2.89h0Z"/>
    <path class="st0" d="M1586.6,51.19c-17.6-.55-35.24.69-52.6,3.71-21.36,3.72-42.2,10.2-61.94,19.17-8.97,4.08-17.7,8.68-26.14,13.76-1.65.99-.15,3.59,1.51,2.59,16.05-9.66,33.14-17.57,50.92-23.47,19.88-6.6,40.58-10.72,61.47-12.23,8.9-.64,17.84-.81,26.76-.53,1.93.06,1.93-2.94,0-3h0Z"/>
  </g>
</svg>